<svg xmlns="http://www.w3.org/2000/svg"><symbol id="close-icon" viewBox="0 0 20 20"><path d="M10.185 1.417A8.582 8.582 0 0 0 1.602 10c0 4.74 3.842 8.582 8.583 8.582S18.768 14.74 18.768 10a8.582 8.582 0 0 0-8.583-8.583m0 16.263c-4.235 0-7.679-3.445-7.679-7.68 0-4.235 3.444-7.679 7.679-7.679S17.864 5.765 17.864 10c0 4.234-3.444 7.68-7.679 7.68m.639-7.68l2.842-2.844a.447.447 0 0 0 0-.637.447.447 0 0 0-.637 0L10.185 9.36 7.341 6.52a.447.447 0 0 0-.637 0 .447.447 0 0 0 0 .637L9.546 10l-2.841 2.844a.447.447 0 0 0 0 .637.447.447 0 0 0 .637 0l2.844-2.841 2.844 2.841a.447.447 0 0 0 .637 0 .447.447 0 0 0 0-.637L10.824 10z"/></symbol><symbol id="logo" viewBox="0 0 337 71"><title>TOWER</title><text transform="translate(-243 -212)" fill-rule="evenodd" font-size="100" font-family="Kreon-bold, Kreon" font-weight="bold"><tspan x="242" y="282">TOWER</tspan></text></symbol><symbol id="map" viewBox="0 0 20 20"><path d="M10.292 4.229a2.69 2.69 0 1 0 0 5.381 2.69 2.69 0 0 0 0-5.381zm0 4.306a1.615 1.615 0 1 1 0-3.23 1.615 1.615 0 0 1 0 3.23zm0-7.535a6.458 6.458 0 0 0-6.458 6.458c0 3.567 6.458 10.764 6.458 10.764s6.458-7.196 6.458-10.764A6.458 6.458 0 0 0 10.292 1zM4.91 7.525c0-3.009 2.41-5.449 5.382-5.449 2.971 0 5.381 2.44 5.381 5.449s-5.381 9.082-5.381 9.082S4.91 10.535 4.91 7.525z"/></symbol><symbol id="search" viewBox="0 0 20 20"><path d="M18.125 15.804l-4.038-4.037a6.643 6.643 0 0 0 1.01-3.534C15.089 4.62 12.199 1.75 8.584 1.75 4.815 1.75 1.982 4.726 2 8.286c.021 3.577 2.908 6.549 6.578 6.549a6.464 6.464 0 0 0 3.44-.985l4.032 4.026c.167.166.43.166.596 0l1.479-1.478a.415.415 0 0 0 0-.594M8.578 13.99c-3.198 0-5.716-2.593-5.733-5.71-.017-3.084 2.438-5.686 5.74-5.686 3.197 0 5.625 2.493 5.64 5.624.017 3.33-2.604 5.772-5.647 5.772m7.771 2.991l-3.637-3.635c.131-.11.721-.695.876-.884l3.642 3.639-.881.88z"/></symbol><symbol id="toc-icon" viewBox="0 0 20 20"><path d="M10 1.529A8.47 8.47 0 0 0 1.529 10 8.47 8.47 0 0 0 10 18.471 8.469 8.469 0 0 0 18.471 10 8.47 8.47 0 0 0 10 1.529m0 16.05c-4.18 0-7.579-3.399-7.579-7.579S5.82 2.421 10 2.421 17.579 5.82 17.579 10 14.18 17.579 10 17.579M14.348 10a.448.448 0 0 1-.446.446h-5a.447.447 0 0 1 0-.892h5c.244 0 .446.201.446.446m0 2.675a.448.448 0 0 1-.446.446h-5a.446.446 0 0 1 0-.891h5c.244-.001.446.2.446.445M7.394 10c0 .245-.2.446-.446.446h-.849c-.245 0-.446-.201-.446-.446s.201-.446.446-.446h.849c.246 0 .446.201.446.446m0 2.675c0 .245-.2.446-.446.446h-.849c-.245 0-.446-.201-.446-.446s.201-.445.446-.445h.849c.246-.001.446.2.446.445m6.954-5.35a.447.447 0 0 1-.446.446h-5a.446.446 0 0 1 0-.892h5c.244 0 .446.201.446.446m-6.954 0c0 .246-.2.446-.446.446h-.849a.447.447 0 0 1 0-.892h.849c.246 0 .446.201.446.446"/></symbol></svg>